<?xml version="1.0" encoding="utf-8"?>
<!-- Generator: Adobe Illustrator 16.0.0, SVG Export Plug-In . SVG Version: 6.00 Build 0)  -->
<!DOCTYPE svg PUBLIC "-//W3C//DTD SVG 1.1//EN" "http://www.w3.org/Graphics/SVG/1.1/DTD/svg11.dtd">
<svg version="1.1" id="Layer_1" xmlns="http://www.w3.org/2000/svg" xmlns:xlink="http://www.w3.org/1999/xlink" x="0px" y="0px"
	 width="700px" height="50px" viewBox="0 0 700 50" enable-background="new 0 0 700 50" xml:space="preserve">
<rect x="-3.641" y="5.015" fill="none" width="707.281" height="64.815"/>
<g>
	<g>
		<path fill="#FDBB05" d="M-27.077,31.207l1.135-5.745l2.398-5.488l-2.967-5.473l1.81-5.471l-0.693-5.471l-1.347-5.472l-1.493-5.47
			l5.301-5.471l0.632-5.471l-1.239-5.472l0.062-5.446l-4.67-5.472l-0.609-5.47l3.45-5.474l-1.767-5.469l0.271-5.472l3.77-5.471
			l0.817-5.471l-2.983-5.473l2.313-5.469l-0.398-5.472l-2.99-5.47l1.159-5.473l0.209-5.469l0.759-5.473l0.736-5.469l-1.137-5.471
			l-1.283-5.976l5.933,2.608l5.45,0.504l5.45-1.537l5.43-0.903l5.446,2.67l5.428-4.942l5.451,4.063l5.428-4.25l5.451-1.285
			l5.43,3.137l5.446,1.916l5.428-4.336l5.451,6.144l5.429-6.5l5.45,0.104l5.425,0.799l5.451,1.957l5.428-1.285l5.451-1.451
			l5.428,2.861l5.429-0.188l5.447,1.051l5.428-1.135l5.451,0.355l5.43,3.893l5.447-3.744l5.432-0.885l5.445,0.99l5.43-3.306
			l5.449,4.188l5.43,0.421l5.449-4.819l5.43,3.223l5.428-3.518l5.448,0.084l5.429,7.365l5.45-4.564l5.428-1.938l5.45,5.998h5.429
			l5.448-4.674l5.428,2.42l5.45,2.127l5.429-0.465l5.431-2.354l5.444,2.649l5.431-3.026l5.451,2.375l5.428-4.649l5.451,3.429
			l5.429,2.358l5.447-0.442l5.428-0.694l5.451,0.021l5.427,0.02l5.451,0.504l5.428-2.5l5.429,0.733l5.447-2.481l5.429,5.112
			l5.45-6.964l5.43,2.842l5.449-1.158l5.43-0.631l5.447,5.723l5.428-0.969l5.43-1.158l5.449-1.387l5.429-3.029l5.45,6.775
			l5.427-0.781l5.448-3.976l5.43,0.358l5.451,2.082l5.428-2.209l5.43-1.789l5.446,4.629l5.429-1.113l5.449,0.777l5.428-1.726
			l5.451-0.969l5.43,4.122l5.429-4.205l5.446-0.295l5.43-1.41l5.45,0.171l5.429,2.019l5.45,2.524l5.428,0.633l5.429,0.505
			l5.448,0.125l5.429-2.775l5.449-1.896l5.43-1.073l5.449,1.935l5.426-2.504l5.429,1.181l5.448,1.787l5.431,1.074l5.448,0.334
			l5.431-2.398l5.429,0.592l5.447-2.084l5.428,1.852l5.45-2l5.429-0.758l5.43,5.261l5.449-5.322l5.43,6.817l5.447-1.116l5.429-5.431
			l5.43,0.613l5.45,5.342l5.43-6.039l5.446,5.347l5.429-3.451l5.45,4.438l5.429-4.521l5.428,1.6l5.451-2.252l5.429-1.18l5.429-0.25
			l5.447,5.977l5.429-1.434l5.449,0.549l5.43,1.18l5.45-2.147l5.43-2.504l5.424-1.64l5.451,4.923l5.428,0.864l5.451-5.832
			l5.428,5.41l5.451-4.375l5.424,3.994l5.43-2.858l5.45,5.069l4.608-2.691l0.969,4.648l1.558,5.472l-1.812,5.469l-3.408,5.474
			l5.869,5.469l-5.658,5.472l5.597,5.47l-2.671,5.471l-0.254,5.471l2.46,5.472l-3.851,5.472l-1.43,5.469l1.516,5.473l0.968,5.469
			l4.629,5.473l-1.704,5.471l-1.913,5.472l0.608,5.47l0.566,5.472l-2.334,5.469l-0.064,5.472l1.054,5.471l-1.265,5.471l-0.146,5.471
			l4.818,5.471l-5.788,5.47l6.145,5.471l-6.836,5.472l1.092,3.367l-3.324,1.072l-5.45,3.639h-5.429l-5.447-0.146l-5.43-3.07
			l-5.449,2.524l-5.43-4.818l-5.449,4.46l-5.43-1.284l-5.447-1.598l-5.428,0.986l-5.451,2.357l-5.428-1.6l-5.451-1.662l-5.426,4.818
			l-5.449-2.568l-5.43-3.387l-5.449,3.598l-5.43-1.178l-5.449-0.085l-5.426,3.45l-5.449-3.979l-5.43-1.809l-5.45,5.195l-5.43-0.44
			l-5.446-1.705l-5.43-0.82l-5.449,1.265l-5.429,0.084l-5.429,0.776l-5.451-3.387l-5.428-0.336l-5.447,2.647l-5.428-1.873
			l-5.451-0.646l-5.428,3.068l-5.451-1.137l-5.429,2.965l-5.446-1.994l-5.43,2.25l-5.429-4.314l-5.449,2.294l-5.43-3.343
			l-5.449,5.107l-5.431-6.752l-5.445,1.957l-5.43,2.125l-5.449-4.082l-5.43,0.696l-5.449,4.144l-5.426,0.504l-5.451-0.504
			l-5.428-0.969l-5.43-3.807l-5.449,1.955l-5.429-1.178l-5.448,0.379l-5.429,5.658l-5.448-4.293l-5.43,0.905l-5.45-0.358
			l-5.429-0.504l-5.428,1.515l-5.447-1.093l-5.43-1.813l-5.451,5.534l-5.428-0.481l-5.45-1.686l-5.429,0.63l-5.445,0.991
			l-5.43-0.381l-5.43-2.504l-5.449-0.715l-5.43-1.263l-5.451,2.44l-5.424,0.295l-5.451-2.549l-5.429,4.043l-5.449,0.295
			l-5.429-3.641l-5.431,3.09l-5.445-5.488l-5.43,2.902l-5.449,1.558l-5.429-0.084l-5.45,1.136l-5.43-3.451l-5.429,3.936
			l-5.447-0.758l-5.429,0.842l-5.45,0.525l-5.429-1.642l-5.429,0.044l-5.45-2.104l-5.426,3.11l-5.449-0.252l-5.431-2.335
			l-5.448-2.293l-5.429,0.548l-5.431,0.168l-5.448,3.978l-5.428-4.691l-5.449,3.01l-5.428,0.652l-5.43,2.018l-5.451-3.64
			l-5.428-0.127l-5.446-0.104l-5.43-0.188l-5.428-1.197l-5.451,2.525l-5.429,2.942l-5.448-5.303l-5.432,5.092l-5.426-0.926
			l-5.449,0.506l-5.43-2.986l-5.45,0.675l-5.428,0.313l-5.429-4.166l-5.447,0.42l-5.429,6.104l-5.45-4.42l-5.429,0.505l-5.45,1.833
			l-5.431-3.725l-5.429,5.133L29.036,40l-5.428-3.808l-5.451,3.641l-5.428-4.063l-5.45-2.145l-5.429,4.102l-5.425-3.26l-5.451,4.564
			l-5.429-3.115l-5.45-2.713l-3.871,1.661L-27.077,31.207z"/>
	</g>
</g>
</svg>
