<?xml version="1.0" encoding="utf-8"?>
<!-- Generator: Adobe Illustrator 16.0.0, SVG Export Plug-In . SVG Version: 6.00 Build 0)  -->
<!DOCTYPE svg PUBLIC "-//W3C//DTD SVG 1.1//EN" "http://www.w3.org/Graphics/SVG/1.1/DTD/svg11.dtd">
<svg version="1.1" id="Layer_1" xmlns="http://www.w3.org/2000/svg" xmlns:xlink="http://www.w3.org/1999/xlink" x="0px" y="0px"
	 width="700px" height="50px" viewBox="0 0 700 50" enable-background="new 0 0 700 50" xml:space="preserve">
<g>
	<g>
		<defs>
			<rect id="SVGID_1_" x="-3.641" y="5.015" width="707.281" height="64.815"/>
		</defs>
		<clipPath id="SVGID_2_">
			<use xlink:href="#SVGID_1_"  overflow="visible"/>
		</clipPath>
		<g clip-path="url(#SVGID_2_)">
			<path fill="#6F4322" d="M727.056,14.046l-1.135,5.745l-2.399,5.488l2.967,5.473l-1.809,5.47l0.693,5.472l1.347,5.471l1.493,5.47
				l-5.301,5.471l-0.632,5.47l1.24,5.472l-0.062,5.446l4.67,5.472l0.609,5.47l-3.45,5.473l1.767,5.469l-0.271,5.472l-3.769,5.47
				l-0.818,5.471l2.984,5.472l-2.314,5.469l0.399,5.472l2.99,5.47l-1.159,5.472l-0.209,5.469l-0.759,5.473l-0.736,5.469l1.136,5.471
				l1.284,5.975l-5.933-2.609l-5.45-0.504l-5.45,1.538l-5.43,0.903l-5.446-2.67l-5.428,4.942l-5.451-4.062l-5.428,4.25l-5.451,1.285
				l-5.43-3.136l-5.446-1.916l-5.428,4.335l-5.451-6.143l-5.429,6.5l-5.45-0.105l-5.425-0.799l-5.451-1.956l-5.428,1.284
				l-5.451,1.452l-5.428-2.862l-5.428,0.188l-5.448-1.051l-5.428,1.135l-5.451-0.355l-5.429-3.893l-5.448,3.744l-5.431,0.885
				l-5.446-0.99l-5.429,3.305l-5.449-4.188l-5.43-0.421l-5.449,4.819l-5.43-3.222l-5.428,3.517l-5.448-0.084l-5.429-7.365
				l-5.45,4.564l-5.428,1.938l-5.45-5.998h-5.429l-5.448,4.673l-5.428-2.42l-5.45-2.126l-5.429,0.464l-5.43,2.355l-5.445-2.649
				l-5.43,3.026l-5.451-2.375l-5.428,4.65l-5.451-3.429l-5.429-2.358l-5.447,0.442l-5.428,0.694l-5.451-0.022l-5.427-0.019
				l-5.451-0.504l-5.428,2.5l-5.429-0.733l-5.447,2.481l-5.429-5.112l-5.45,6.964l-5.429-2.842l-5.449,1.158l-5.43,0.631
				l-5.447-5.723l-5.428,0.969l-5.43,1.158l-5.449,1.387l-5.429,3.029l-5.45-6.775l-5.427,0.781l-5.448,3.976l-5.43-0.358
				l-5.451-2.082l-5.428,2.209l-5.429,1.788l-5.447-4.629l-5.428,1.114l-5.45-0.777l-5.428,1.725l-5.451,0.969l-5.429-4.123
				l-5.429,4.206l-5.446,0.294l-5.43,1.411l-5.45-0.171l-5.429-2.019l-5.45-2.524l-5.428-0.633l-5.429-0.504l-5.448-0.125
				l-5.429,2.775l-5.449,1.895l-5.429,1.074l-5.45-1.935l-5.425,2.504l-5.429-1.181l-5.449-1.787l-5.43-1.074l-5.449-0.334
				l-5.43,2.398l-5.429-0.591l-5.447,2.083l-5.428-1.851l-5.45,2l-5.429,0.758l-5.429-5.261l-5.45,5.322l-5.429-6.817l-5.448,1.116
				l-5.428,5.43l-5.43-0.613l-5.45-5.342l-5.429,6.039l-5.447-5.346l-5.429,3.451l-5.45-4.438l-5.428,4.521l-5.429-1.6l-5.45,2.252
				l-5.429,1.18l-5.429,0.25l-5.447-5.977l-5.429,1.434l-5.449-0.549l-5.43-1.179l-5.45,2.147l-5.429,2.504l-5.425,1.64l-5.45-4.923
				l-5.429-0.864l-5.45,5.831l-5.429-5.41l-5.45,4.376l-5.425-3.995l-5.429,2.859l-5.45-5.07l-4.609,2.692l-0.968-4.649
				l-1.558-5.471l1.812-5.469l3.408-5.473l-5.869-5.469l5.658-5.472l-5.597-5.47l2.671-5.471l0.254-5.47l-2.46-5.472l3.85-5.471
				l1.43-5.47l-1.516-5.472l-0.967-5.469l-4.629-5.473l1.704-5.47l1.913-5.472l-0.609-5.469l-0.566-5.472l2.334-5.469l0.065-5.472
				l-1.054-5.47l1.264-5.471l0.146-5.47l-4.818-5.471l5.788-5.47l-6.145-5.471l6.837-5.472l-1.092-3.367l3.324-1.072l5.45-3.639
				h5.429l5.447,0.146l5.429,3.07l5.45-2.524l5.429,4.818l5.45-4.46l5.429,1.285l5.447,1.597l5.429-0.987l5.45-2.357l5.429,1.6
				l5.45,1.662l5.426-4.818l5.45,2.568l5.429,3.386l5.45-3.597l5.429,1.178l5.45,0.085l5.425-3.45l5.45,3.978l5.429,1.808
				l5.45-5.195l5.43,0.441l5.446,1.705l5.43,0.82l5.449-1.264l5.429-0.084l5.429-0.777l5.45,3.387l5.429,0.336l5.447-2.648
				l5.428,1.873l5.45,0.647l5.429-3.069l5.45,1.137l5.429-2.965l5.447,1.994l5.429-2.25l5.429,4.315l5.449-2.294l5.43,3.343
				l5.449-5.108l5.43,6.752l5.446-1.957l5.43-2.125l5.449,4.082l5.429-0.696l5.45-4.144l5.426-0.504l5.451,0.504l5.428,0.969
				l5.429,3.807l5.449-1.955l5.429,1.178l5.448-0.38l5.429-5.657l5.449,4.293l5.429-0.906l5.45,0.359l5.429,0.504l5.428-1.515
				l5.447,1.093l5.43,1.812l5.451-5.534l5.427,0.482l5.451,1.685l5.429-0.63l5.445-0.991l5.43,0.38l5.429,2.504l5.45,0.715
				l5.429,1.263l5.451-2.44l5.424-0.295l5.451,2.548l5.429-4.042l5.449-0.295l5.429,3.641l5.431-3.09l5.445,5.488l5.43-2.902
				l5.449-1.558l5.429,0.084l5.45-1.136l5.429,3.451l5.429-3.936l5.447,0.758l5.429-0.842l5.45-0.525l5.429,1.642l5.429-0.044
				l5.45,2.104l5.426-3.111l5.449,0.252l5.431,2.335l5.448,2.293l5.429-0.548l5.43-0.168l5.448-3.978l5.428,4.692l5.449-3.01
				l5.428-0.652l5.43-2.018l5.451,3.64l5.428,0.127l5.446,0.104l5.43,0.189l5.428,1.197l5.451-2.525l5.429-2.943l5.448,5.303
				l5.431-5.092l5.426,0.926l5.449-0.506l5.43,2.986l5.45-0.674l5.428-0.313l5.429,4.166l5.447-0.42l5.429-6.104l5.45,4.42
				l5.429-0.505l5.45-1.833l5.43,3.724l5.429-5.132l5.447-1.136l5.428,3.807l5.451-3.64l5.428,4.062l5.45,2.145l5.429-4.102
				l5.425,3.26l5.451-4.564l5.429,3.115l5.45,2.713l3.871-1.661L727.056,14.046z"/>
		</g>
	</g>
</g>
</svg>
