<?xml version="1.0" encoding="utf-8"?>
<!-- Generator: Adobe Illustrator 16.0.0, SVG Export Plug-In . SVG Version: 6.00 Build 0)  -->
<!DOCTYPE svg PUBLIC "-//W3C//DTD SVG 1.1//EN" "http://www.w3.org/Graphics/SVG/1.1/DTD/svg11.dtd">
<svg version="1.1" id="Layer_1" xmlns="http://www.w3.org/2000/svg" xmlns:xlink="http://www.w3.org/1999/xlink" x="0px" y="0px"
	 width="700px" height="50px" viewBox="0 0 700 50" enable-background="new 0 0 700 50" xml:space="preserve">
<g>
	<defs>
		<rect id="SVGID_1_" x="-3.392" y="-16.986" width="707.282" height="64.815"/>
	</defs>
	<clipPath id="SVGID_2_">
		<use xlink:href="#SVGID_1_"  overflow="visible"/>
	</clipPath>
	<g clip-path="url(#SVGID_2_)">
		<path fill="#6F4322" d="M724.005,42.454l-3.871-1.661l-5.45,2.713l-5.429,3.115l-5.451-4.565l-5.425,3.26l-5.429-4.101
			l-5.45,2.145l-5.428,4.061l-5.451-3.64l-5.428,3.807l-5.447-1.136l-5.429-5.131l-5.429,3.723l-5.45-1.833l-5.429-0.505l-5.45,4.42
			l-5.429-6.104l-5.447-0.42l-5.429,4.166l-5.428-0.313l-5.45-0.674l-5.43,2.986l-5.449-0.505l-5.426,0.926l-5.43-5.092
			l-5.449,5.302l-5.428-2.943l-5.451-2.526l-5.428,1.198l-5.43,0.189l-5.446,0.105l-5.428,0.127l-5.451,3.64l-5.43-2.018
			l-5.428-0.653l-5.449-3.009l-5.428,4.692l-5.448-3.978l-5.43-0.167l-5.428-0.548l-5.449,2.293l-5.43,2.335l-5.449,0.252
			l-5.426-3.112l-5.45,2.104l-5.429-0.044l-5.429,1.642l-5.45-0.526l-5.429-0.842l-5.447,0.758l-5.429-3.935l-5.428,3.451
			l-5.451-1.136l-5.428,0.084l-5.45-1.557l-5.429-2.903l-5.446,5.489l-5.43-3.091l-5.429,3.641l-5.449-0.295l-5.429-4.042
			l-5.451,2.548l-5.424-0.295l-5.451-2.44l-5.429,1.262l-5.45,0.715l-5.429,2.504l-5.429,0.38l-5.446-0.991l-5.429-0.63
			l-5.451,1.684l-5.427,0.483l-5.451-5.534l-5.429,1.812l-5.448,1.092l-5.427-1.514l-5.429,0.504l-5.45,0.359l-5.429-0.907
			l-5.449,4.293l-5.429-5.657l-5.448-0.38l-5.429,1.178l-5.449-1.955l-5.429,3.806l-5.428,0.969l-5.451,0.504l-5.426-0.504
			l-5.45-4.143l-5.429-0.697l-5.449,4.082l-5.429-2.125l-5.447-1.957l-5.429,6.753l-5.45-5.109l-5.429,3.343l-5.45-2.294
			l-5.428,4.315l-5.429-2.25l-5.447,1.995l-5.429-2.965l-5.45,1.136l-5.429-3.069l-5.45,0.648l-5.428,1.873l-5.447-2.649
			l-5.429,0.336l-5.45,3.387l-5.429-0.778l-5.428-0.084l-5.45-1.263l-5.429,0.82l-5.447,1.705l-5.429,0.442l-5.45-5.196
			l-5.429,1.808l-5.45,3.977l-5.425-3.45l-5.45,0.085l-5.429,1.178l-5.45-3.597l-5.429,3.386l-5.45,2.568l-5.426-4.818l-5.45,1.662
			l-5.429,1.6l-5.45-2.358l-5.429-0.987l-5.447,1.597l-5.429,1.285l-5.45-4.46l-5.429,4.818l-5.45-2.524l-5.429,3.07l-5.447,0.147
			h-5.429l-5.45-3.639l-3.324-1.073l1.092-3.367l-6.837-5.471l6.144-5.471l-5.788-5.47l4.819-5.471l-0.146-5.469l-1.263-5.471
			l1.053-5.47l-0.065-5.471l-2.334-5.469l0.566-5.472l0.61-5.469l-1.913-5.471l-1.705-5.47l4.629-5.472l0.967-5.469l1.516-5.472
			l-1.43-5.469l-3.85-5.471l2.46-5.472l-0.253-5.469l-2.671-5.472l5.596-5.469l-5.658-5.472l5.869-5.469l-3.408-5.472l-1.811-5.469
			l1.557-5.471l0.968-4.649l4.609,2.692l5.45-5.07l5.429,2.86l5.425-3.996l5.45,4.376l5.429-5.41l5.45,5.831l5.429-0.864l5.45-4.923
			l5.425,1.64l5.429,2.504l5.45,2.147l5.429-1.179l5.45-0.548l5.428,1.433l5.448-5.977l5.428,0.251l5.429,1.179l5.45,2.252
			l5.429-1.6l5.428,4.522l5.45-4.438l5.429,3.451l5.447-5.345l5.429,6.039l5.45-5.342l5.429-0.613l5.428,5.429l5.448,1.117
			l5.429-6.818l5.45,5.323l5.429-5.261l5.429,0.758l5.45,2l5.428-1.851l5.447,2.083l5.429-0.59l5.429,2.398l5.45-0.334l5.429-1.074
			l5.449-1.788l5.429-1.18l5.425,2.504l5.45-1.935l5.429,1.074l5.449,1.895l5.429,2.776l5.448-0.126l5.429-0.504l5.427-0.632
			l5.451-2.525l5.428-2.019l5.451-0.17l5.429,1.411l5.447,0.294l5.428,4.206l5.429-4.123l5.451,0.968l5.428,1.725l5.45-0.777
			l5.428,1.114l5.447-4.629l5.429,1.788l5.428,2.21l5.451-2.083l5.429-0.358l5.449,3.976l5.426,0.78l5.451-6.775l5.429,3.03
			l5.449,1.387l5.429,1.158l5.428,0.968l5.447-5.723l5.43,0.631l5.449,1.158l5.429-2.841l5.45,6.964l5.429-5.113l5.447,2.482
			l5.429-0.734l5.428,2.501l5.451-0.504l5.427-0.019l5.451-0.022l5.428,0.694l5.447,0.442l5.429-2.358l5.451-3.429l5.428,4.651
			l5.451-2.376l5.429,3.027l5.446-2.649l5.429,2.355l5.429,0.464l5.45-2.126l5.428-2.42l5.448,4.673h5.429l5.45-5.998l5.428,1.938
			l5.45,4.565l5.429-7.365l5.448-0.084l5.428,3.516l5.429-3.221l5.45,4.819l5.429-0.421l5.45-4.188l5.428,3.305l5.447-0.99
			l5.43,0.884l5.449,3.745l5.428-3.893l5.451-0.356l5.428,1.136l5.448-1.052l5.428,0.188l5.428-2.862l5.451,1.452l5.428,1.284
			l5.451-1.956l5.425-0.799l5.45-0.105l5.429,6.5l5.451-6.143l5.428,4.335l5.446-1.916l5.43-3.135l5.451,1.284l5.428,4.25
			l5.451-4.061l5.428,4.943l5.446-2.671l5.43,0.904l5.45,1.538l5.45-0.504l5.933-2.609l-1.285,5.974l-1.135,5.471l0.736,5.469
			l0.759,5.472l0.209,5.469l1.159,5.472l-2.99,5.469l-0.4,5.472l2.315,5.469l-2.985,5.472l0.819,5.471l3.768,5.469l0.271,5.472
			l-1.767,5.469l3.45,5.472l-0.609,5.47l-4.67,5.471l0.062,5.447l-1.241,5.472l0.632,5.469l5.301,5.471l-1.493,5.469l-1.347,5.472
			l-0.693,5.471l1.808,5.47l-2.966,5.472l2.399,5.489l1.135,5.745L724.005,42.454z"/>
	</g>
</g>
</svg>
